<svg width="112" height="54" viewBox="0 0 112 54" fill="none" xmlns="http://www.w3.org/2000/svg">
<path d="M15.0363 34.8222C15.0363 35.7116 14.8715 36.4957 14.5449 37.1715C14.2184 37.8473 13.7556 38.4179 13.1596 38.877C12.5636 39.3392 11.8566 39.6835 11.0387 39.9162C10.2208 40.1489 9.32044 40.2636 8.34085 40.2636H3.0593V46.7187H0.0507812V29.4062H8.52789C9.45359 29.4062 10.3159 29.521 11.1179 29.7537C11.92 29.9832 12.6079 30.3275 13.1849 30.7802C13.7651 31.2328 14.2184 31.8002 14.5449 32.4728C14.8715 33.1518 15.0363 33.9328 15.0363 34.8222ZM11.9422 34.8222C11.9422 33.8659 11.6315 33.1327 11.0038 32.6227C10.3793 32.1126 9.53919 31.8544 8.48034 31.8544H3.0593V37.8154H8.48034C9.63429 37.8154 10.4998 37.5509 11.0767 37.0249C11.6537 36.4957 11.9422 35.7626 11.9422 34.8222Z" fill="#54565A"/>
<path d="M25.0447 36.4326C24.7182 36.2828 24.379 36.168 24.0334 36.0851C23.6847 36.0023 23.2599 35.9608 22.759 35.9608C21.8143 35.9608 21.082 36.2413 20.5589 36.8024C20.039 37.3634 19.779 38.1954 19.779 39.3016V46.7226H16.7705V33.739H19.779V34.9758C20.1246 34.5455 20.6033 34.1885 21.2088 33.8984C21.8175 33.6115 22.4959 33.4648 23.2472 33.4648C23.8654 33.4648 24.3695 33.5095 24.7658 33.6019C25.162 33.6944 25.5139 33.8282 25.8214 34.0099L25.0447 36.4326Z" fill="#54565A"/>
<path d="M39.2216 40.1661C39.2216 41.2372 39.0472 42.1967 38.7016 43.0478C38.3529 43.8958 37.8711 44.613 37.256 45.1995C36.6378 45.7861 35.915 46.2324 35.0845 46.5352C34.257 46.8412 33.3504 46.9942 32.3644 46.9942C31.4007 46.9942 30.513 46.8317 29.7015 46.5129C28.8899 46.1909 28.1861 45.7319 27.5901 45.139C26.9909 44.5461 26.5249 43.8352 26.1889 43.0128C25.8497 42.1872 25.6816 41.2659 25.6816 40.2426C25.6816 39.1875 25.856 38.2376 26.2016 37.3992C26.5471 36.5576 27.0258 35.8468 27.6345 35.2602C28.2432 34.6737 28.9565 34.2306 29.7744 33.9246C30.5923 33.6186 31.4863 33.4688 32.45 33.4688C33.4138 33.4688 34.3109 33.6281 35.1415 33.9501C35.9689 34.2721 36.6886 34.7215 37.2973 35.2985C37.9028 35.8755 38.3783 36.58 38.7143 37.412C39.0504 38.2408 39.2216 39.162 39.2216 40.1661ZM36.2099 40.2426C36.2099 38.907 35.8675 37.8487 35.1827 37.0645C34.498 36.2803 33.5469 35.8882 32.3327 35.8882C31.1946 35.8882 30.3038 36.2803 29.6571 37.0645C29.0104 37.8487 28.687 38.8815 28.687 40.1693C28.687 41.6038 29.0357 42.6972 29.73 43.4463C30.4243 44.1954 31.3404 44.5716 32.4785 44.5716C33.0365 44.5716 33.5501 44.4568 34.0098 44.2241C34.4726 43.9946 34.8689 43.6854 35.1954 43.2965C35.5219 42.9108 35.7756 42.4517 35.9467 41.9258C36.1243 41.3966 36.2099 40.8356 36.2099 40.2426Z" fill="#54565A"/>
<path d="M84.2041 0C86.2806 0.663045 88.2398 1.51098 90.0753 2.65218L92.1645 0.353837L93.7337 4.91227C95.5598 6.11404 97.3668 7.57083 99.1104 9.25395L94.4407 8.94474L94.8687 16.2669L91.0454 9.09137L84.8381 9.67473L88.4966 5.22786C87.3299 3.24828 85.9033 1.50142 84.2041 0Z" fill="#54565A"/>
<path d="M103.469 22.5318L100.562 23.2108L98.2096 19.3281C98.4283 20.8614 98.46 22.3565 98.4029 23.775L95.0869 24.9449L98.3269 26.7619L97.883 31.2215L100.321 27.9637L102.997 30.1982L101.538 25.8406L103.469 22.5318Z" fill="#54565A"/>
<path d="M103.178 14.6337L101.203 15.2011L103.685 16.2467L104.595 19.1092L104.969 17.4198L106.602 18.7745L105.27 15.8705L105.768 13.9292L104.063 14.3755L102.005 12.2461L103.178 14.6337Z" fill="#54565A"/>
<path d="M109.999 32.3603L112 29.6285L109.914 28.4108C109.777 25.8096 109.378 23.5941 108.7 21.8281C108.798 23.7918 108.142 27.6776 108.142 27.6776C107.108 27.1421 105.913 26.8201 104.575 26.6671C105.704 27.8019 106.61 29.3288 107.254 31.2032C106.658 33.425 105.9 35.207 104.956 36.5235L108.345 34.12C108.345 34.12 109.197 36.922 109.235 38.4903C109.746 36.804 110.003 34.7511 109.999 32.3603Z" fill="#54565A"/>
<path d="M105.799 42.6085C105.422 43.2046 104.705 43.7784 103.723 44.3872C104.509 44.2342 105.051 44.2215 105.409 44.3043C105.254 45.2575 105.01 46.1437 104.705 46.947L106.313 44.2278L107.673 43.9888L107.2 42.2323L108.472 39.3984C107.999 40.1348 107.489 40.7851 106.868 41.4035L106.021 39.9467L105.799 42.6085Z" fill="#54565A"/>
<path d="M90.4306 18.685L91.5433 21.5508L92.1298 19.7752C93.1221 20.3267 93.9939 20.9228 94.7579 21.5635L92.4215 18.8157L92.7036 17.3143H91.0171L88.3351 15L89.7997 17.3111L87.5869 17.3876L90.4306 18.685Z" fill="#54565A"/>
<path d="M50.5808 47.0077C45.2486 47.0077 41.8564 43.3131 41.8564 38.0566C41.8564 32.8 45.2454 29.1055 50.5808 29.1055C53.9381 29.1055 56.1826 30.253 57.5965 32.3569L54.8511 33.801C53.7954 32.3888 52.7017 31.7098 50.5777 31.7098C46.9795 31.7098 45.0362 34.1676 45.0362 38.0598C45.0362 41.952 46.9795 44.4097 50.5777 44.4097C52.7302 44.4097 54.0554 43.6606 55.1142 42.2484L57.6789 43.6861C56.2079 45.8155 53.7067 47.0077 50.5808 47.0077Z" fill="#54565A"/>
<path d="M69.0725 46.7384V39.378C69.0725 36.7481 67.8932 35.8014 65.8928 35.8014C63.8543 35.8014 62.7099 37.0255 62.7099 39.123V46.7384H59.6729V30.0029L62.7099 28.6641V34.9598C63.4771 34.0162 65.0051 33.4456 66.5966 33.4456C70.1947 33.4456 72.1095 35.4348 72.1095 39.2728V46.7384H69.0725Z" fill="#54565A"/>
<path d="M80.0537 46.7391V30.0036L83.0908 28.668V46.7391H80.0537Z" fill="#54565A"/>
<path d="M74.5947 33.7865V32.5082L77.6286 31.1758V33.7865H74.5947Z" fill="#54565A"/>
<path d="M98.166 41.1341H87.939C88.2655 43.6333 89.9457 44.698 91.832 44.698C93.1286 44.698 94.1557 44.3027 95.1829 43.6588L96.9867 45.2941C95.6267 46.3843 94.0131 47.0091 91.6513 47.0091C88.0246 47.0091 84.959 44.5513 84.959 40.2383C84.959 35.8265 87.7266 33.4453 91.74 33.4453C96.1308 33.4453 98.2516 36.445 98.2516 39.9642C98.2516 40.4424 98.1914 40.8631 98.166 41.1341ZM91.5372 35.7564C89.5019 35.7564 88.2655 36.9422 87.9929 39.027H95.1829C95.0402 37.2387 94.0353 35.7564 91.5372 35.7564Z" fill="#54565A"/>
<path d="M77.6354 34.7188H74.6016V46.7428H77.6354V34.7188Z" fill="#54565A"/>
<path d="M2.52348 53.7585L2.46325 51.3454H2.44422C2.3935 51.6515 2.34278 51.8714 2.30474 52.0372L1.90212 53.7585H1.09055L0.703784 52.0372C0.665742 51.8714 0.615019 51.6515 0.561125 51.3454H0.542104L0.504062 53.7585H0L0.107787 50.9023H1.05568C1.05568 50.9023 1.36636 52.34 1.53121 53.2644H1.54389C1.7341 52.3464 2.10501 50.9023 2.10501 50.9023H3.03705L3.14484 53.7585H2.52348Z" fill="#54565A"/>
<path d="M4.96372 50.9023H4.41211V53.7585H4.96372V50.9023Z" fill="#54565A"/>
<path d="M7.64615 53.7585L6.76166 51.5112H6.74581L6.78385 53.7585H6.28613V50.9023H7.13258L8.02974 53.1943H8.04559L8.00755 50.9023H8.51795V53.7585H7.64615Z" fill="#54565A"/>
<path d="M10.3924 50.9023H9.84082V53.7585H10.3924V50.9023Z" fill="#54565A"/>
<path d="M12.5282 53.7977C12.1478 53.7977 11.8276 53.6638 11.6025 53.4949L11.8118 53.0582C11.9766 53.2016 12.2746 53.3323 12.5346 53.3323C12.7945 53.3323 12.9721 53.1729 12.9721 52.9562C12.9721 52.3505 11.6596 52.6502 11.6596 51.6428C11.6596 51.2125 11.9956 50.8555 12.6614 50.8555C12.9943 50.8555 13.2764 50.9288 13.5078 51.0499L13.324 51.4962C13.1686 51.4038 12.915 51.34 12.655 51.34C12.3983 51.34 12.2302 51.4261 12.2302 51.6365C12.2302 52.1497 13.5522 51.9489 13.5522 52.9243C13.549 53.3738 13.175 53.7977 12.5282 53.7977Z" fill="#54565A"/>
<path d="M15.6609 51.3709V53.7585H15.0871V51.3709H14.4023V50.9023H16.3679V51.3709H15.6609Z" fill="#54565A"/>
<path d="M17.4072 53.7585V50.9023H19.154V51.3709H17.9588V52.0722H18.8719L18.8306 52.5663H17.9588V53.2963H19.154V53.7585H17.4072Z" fill="#54565A"/>
<path d="M20.8541 53.7585H20.3057V50.9023H21.2187C21.7798 50.9023 22.2331 51.1637 22.2331 51.763C22.2331 52.1487 22.0144 52.4356 21.6942 52.5855C21.8908 52.9839 22.0968 53.3665 22.2965 53.7617H21.6467L21.1806 52.6811C21.0538 52.6875 20.9714 52.6875 20.8541 52.6875V53.7585ZM21.1299 51.3327H20.8509V52.2476H21.1299C21.4913 52.2476 21.6435 52.0818 21.6435 51.7567C21.6435 51.4379 21.4628 51.3327 21.1299 51.3327Z" fill="#54565A"/>
<path d="M23.992 50.9023H23.4404V53.7585H23.992V50.9023Z" fill="#54565A"/>
<path d="M26.4266 53.7977C25.4882 53.7977 25.2188 53.0837 25.2188 52.3027C25.2188 51.5536 25.4787 50.8555 26.4266 50.8555C27.3903 50.8555 27.644 51.544 27.644 52.3027C27.644 53.0709 27.365 53.7977 26.4266 53.7977ZM26.4266 51.3336C25.9289 51.3336 25.7989 51.7863 25.7989 52.2995C25.7989 52.8669 25.9257 53.3323 26.4266 53.3323C26.9148 53.3323 27.0575 52.8765 27.0575 52.2995C27.0575 51.7799 26.9243 51.3336 26.4266 51.3336Z" fill="#54565A"/>
<path d="M31.439 53.7993C31.0269 53.7993 30.6909 53.7228 30.4277 53.6462V50.8984H31.3756C32.1999 50.8984 32.723 51.2363 32.723 52.2978C32.723 53.2287 32.3203 53.7993 31.439 53.7993ZM31.3534 51.3479H30.9793V53.2733C31.0776 53.302 31.2647 53.3307 31.4676 53.3307C31.8385 53.3307 32.1365 53.1139 32.1365 52.2947C32.1365 51.6061 31.9209 51.3479 31.3534 51.3479Z" fill="#54565A"/>
<path d="M33.918 53.7585V50.9023H35.6647V51.3709H34.4696V52.0722H35.3826L35.3414 52.5663H34.4696V53.2963H35.6647V53.7585H33.918Z" fill="#54565A"/>
<path d="M38.9879 53.7585H38.4395V50.9023H39.3525C39.9136 50.9023 40.3669 51.1637 40.3669 51.763C40.3669 52.1487 40.1482 52.4356 39.828 52.5855C40.0246 52.9839 40.2306 53.3665 40.4303 53.7617H39.7836L39.3176 52.6811C39.1908 52.6875 39.1084 52.6875 38.9879 52.6875V53.7585ZM39.2669 51.3327H38.9879V52.2476H39.2669C39.6283 52.2476 39.7804 52.0818 39.7804 51.7567C39.7804 51.4379 39.5997 51.3327 39.2669 51.3327Z" fill="#54565A"/>
<path d="M41.5137 53.7585V50.9023H43.2605V51.3709H42.0653V52.0722H42.9783L42.9371 52.5663H42.0653V53.2963H43.2605V53.7585H41.5137Z" fill="#54565A"/>
<path d="M44.4268 53.7585V50.9023H44.9815V53.2931H46.1767V53.7585H44.4268Z" fill="#54565A"/>
<path d="M47.5155 53.7585H46.9766L47.7469 50.9023H48.6631L49.4081 53.7585H48.7899L48.6409 53.1146H47.6645L47.5155 53.7585ZM48.0798 51.3869L47.7691 52.6652H48.5426L48.2542 51.3869H48.0798Z" fill="#54565A"/>
<path d="M51.4937 53.7977C50.6948 53.7977 50.2637 53.2654 50.2637 52.3123C50.2637 51.4229 50.6885 50.8555 51.4937 50.8555C51.8805 50.8555 52.2292 50.9415 52.4606 51.0977L52.2514 51.5472C52.1024 51.4324 51.8488 51.3496 51.5508 51.3496C51.0784 51.3496 50.8438 51.6843 50.8438 52.3091C50.8438 52.9689 51.0784 53.3068 51.5444 53.3068C51.8234 53.3068 52.0992 53.1889 52.2926 53.0454L52.4701 53.4949C52.188 53.6893 51.871 53.7977 51.4937 53.7977Z" fill="#54565A"/>
<path d="M54.1883 50.9023H53.6367V53.7585H54.1883V50.9023Z" fill="#54565A"/>
<path d="M56.6229 53.7977C55.6845 53.7977 55.415 53.0837 55.415 52.3027C55.415 51.5536 55.675 50.8555 56.6229 50.8555C57.5866 50.8555 57.8402 51.544 57.8402 52.3027C57.8402 53.0709 57.5613 53.7977 56.6229 53.7977ZM56.6229 51.3336C56.1252 51.3336 55.9952 51.7863 55.9952 52.2995C55.9952 52.8669 56.122 53.3323 56.6229 53.3323C57.1111 53.3323 57.2538 52.8765 57.2538 52.2995C57.2538 51.7799 57.1206 51.3336 56.6229 51.3336Z" fill="#54565A"/>
<path d="M60.3678 53.7585L59.4833 51.5112H59.4675L59.5055 53.7585H59.0078V50.9023H59.8543L60.7514 53.1943H60.7673L60.7292 50.9023H61.2396V53.7585H60.3678Z" fill="#54565A"/>
<path d="M62.4971 53.7585V50.9023H64.2438V51.3709H63.0487V52.0722H63.9617L63.9205 52.5663H63.0487V53.2963H64.2438V53.7585H62.4971Z" fill="#54565A"/>
<path d="M66.0927 53.7977C65.7123 53.7977 65.3952 53.6638 65.167 53.4949L65.3794 53.0582C65.5442 53.2016 65.8422 53.3323 66.1022 53.3323C66.3622 53.3323 66.5397 53.1729 66.5397 52.9562C66.5397 52.3505 65.2272 52.6502 65.2272 51.6428C65.2272 51.2125 65.5633 50.8555 66.229 50.8555C66.5619 50.8555 66.844 50.9288 67.0754 51.0499L66.8916 51.4962C66.7362 51.4038 66.4826 51.34 66.2227 51.34C65.9659 51.34 65.7979 51.4261 65.7979 51.6365C65.7979 52.1497 67.1198 51.9489 67.1198 52.9243C67.1167 53.3738 66.7426 53.7977 66.0927 53.7977Z" fill="#54565A"/>
<path d="M69.8936 53.7585V50.9023H71.6403V51.3709H70.442V52.0722H71.3582L71.3138 52.5663H70.442V53.2963H71.6403V53.7585H69.8936Z" fill="#54565A"/>
<path d="M73.3199 50.9023L73.8145 51.8236L74.3154 50.9023H74.9875L74.0808 52.3081L74.9653 53.7585H74.2868L73.7447 52.8182L73.2216 53.7585H72.5527L73.4848 52.3273L72.6415 50.9023H73.3199Z" fill="#54565A"/>
<path d="M77.0518 51.3709V53.7585H76.478V51.3709H75.79V50.9023H77.7587V51.3709H77.0518Z" fill="#54565A"/>
<path d="M78.7988 53.7585V50.9023H80.5456V51.3709H79.3504V52.0722H80.2635L80.2222 52.5663H79.3504V53.2963H80.5456V53.7585H78.7988Z" fill="#54565A"/>
<path d="M82.2418 53.7585H81.6934V50.9023H82.6064C83.1675 50.9023 83.6208 51.1637 83.6208 51.763C83.6208 52.1487 83.4021 52.4356 83.0819 52.5855C83.2785 52.9839 83.4845 53.3665 83.6842 53.7617H83.0375L82.5715 52.6811C82.4447 52.6875 82.3591 52.6875 82.245 52.6875V53.7585H82.2418ZM82.5208 51.3327H82.245V52.2476H82.5208C82.8822 52.2476 83.0344 52.0818 83.0344 51.7567C83.0344 51.4379 82.8536 51.3327 82.5208 51.3327Z" fill="#54565A"/>
<path d="M85.3836 50.9023H84.832V53.7585H85.3836V50.9023Z" fill="#54565A"/>
<path d="M87.8182 53.7977C86.8798 53.7977 86.6104 53.0837 86.6104 52.3027C86.6104 51.5536 86.8735 50.8555 87.8182 50.8555C88.7819 50.8555 89.0356 51.544 89.0356 52.3027C89.0356 53.0709 88.7566 53.7977 87.8182 53.7977ZM87.8182 51.3336C87.3205 51.3336 87.1905 51.7863 87.1905 52.2995C87.1905 52.8669 87.3173 53.3323 87.8182 53.3323C88.3064 53.3323 88.4491 52.8765 88.4491 52.2995C88.4491 51.7799 88.3159 51.3336 87.8182 51.3336Z" fill="#54565A"/>
<path d="M90.7435 53.7585H90.1982V50.9023H91.1113C91.6724 50.9023 92.1257 51.1637 92.1257 51.763C92.1257 52.1487 91.907 52.4356 91.5868 52.5855C91.7833 52.9839 91.9894 53.3665 92.1891 53.7617H91.5392L91.0732 52.6811C90.9464 52.6875 90.864 52.6875 90.7435 52.6875V53.7585ZM91.0225 51.3327H90.7435V52.2476H91.0225C91.3839 52.2476 91.5361 52.0818 91.5361 51.7567C91.5361 51.4379 91.3554 51.3327 91.0225 51.3327Z" fill="#54565A"/>
<path d="M93.2715 53.7585V50.9023H95.0183V51.3709H93.8231V52.0722H94.7361L94.6949 52.5663H93.8231V53.2963H95.0183V53.7585H93.2715Z" fill="#54565A"/>
<path d="M96.8681 53.7977C96.4877 53.7977 96.1675 53.6638 95.9424 53.4949L96.1516 53.0582C96.3165 53.2016 96.6145 53.3323 96.8744 53.3323C97.1344 53.3323 97.3119 53.1729 97.3119 52.9562C97.3119 52.3505 95.9994 52.6502 95.9994 51.6428C95.9994 51.2125 96.3355 50.8555 97.0012 50.8555C97.3341 50.8555 97.6162 50.9288 97.8477 51.0499L97.6606 51.4962C97.5053 51.4038 97.2517 51.34 96.9917 51.34C96.7349 51.34 96.5669 51.4261 96.5669 51.6365C96.5669 52.1497 97.8889 51.9489 97.8889 52.9243C97.8889 53.3738 97.5148 53.7977 96.8681 53.7977Z" fill="#54565A"/>
</svg>
